<?xml version="1.0" encoding="UTF-8" standalone="no"?>
<svg
   xmlns:dc="http://purl.org/dc/elements/1.1/"
   xmlns:cc="http://creativecommons.org/ns#"
   xmlns:rdf="http://www.w3.org/1999/02/22-rdf-syntax-ns#"
   xmlns:svg="http://www.w3.org/2000/svg"
   xmlns="http://www.w3.org/2000/svg"
   viewBox="0 0 6826.6665 3840"
   height="3840"
   width="6826.6665"
   xml:space="preserve"
   id="svg2"
   version="1.1"><metadata
     id="metadata8"><rdf:RDF><cc:Work
         rdf:about=""><dc:format>image/svg+xml</dc:format><dc:type
           rdf:resource="http://purl.org/dc/dcmitype/StillImage" /></cc:Work></rdf:RDF></metadata><defs
     id="defs6"><clipPath
       id="clipPath20"
       clipPathUnits="userSpaceOnUse"><path
         id="path18"
         d="M 0,2880 H 5120 V 0 H 0 Z" /></clipPath><clipPath
       id="clipPath28"
       clipPathUnits="userSpaceOnUse"><path
         id="path26"
         d="M 1,2880 H 5121 V 0 H 1 Z" /></clipPath></defs><g
     transform="matrix(1.3333333,0,0,-1.3333333,0,3840)"
     id="g10"><path
       id="path12"
       style="fill:#ffffff;fill-opacity:1;fill-rule:nonzero;stroke:none"
       d="M 1,0 H 5120 V 2880 H 1 Z" /><g
       id="g14"><g
         clip-path="url(#clipPath20)"
         id="g16"><g
           id="g22"><g
             id="g24" /><g
             id="g120"><g
               id="g118"
               clip-path="url(#clipPath28)"><g
                 id="g32"
                 transform="translate(2558.2378,412.0309)"><path
                   id="path30"
                   style="fill:#fefefe;fill-opacity:1;fill-rule:nonzero;stroke:none"
                   d="M 0,0 C 558.665,-2.84 1016.487,446.224 1031.082,1001.281 1046.339,1581.545 585.322,2045.79 28.902,2059.922 -550.964,2074.648 -1015.462,1614.126 -1029.469,1057.407 -1044.265,469.377 -568.697,-2.743 0,0 m 0.617,-411.692 c -846.861,0 -1693.723,0.039 -2540.584,-0.339 -13.891,-0.006 -17.277,2.94 -17.271,17.126 0.398,948.409 0.391,1896.817 0.058,2845.226 -0.01,13.3 1.829,17.652 16.756,17.648 1695.597,-0.429 3391.194,-0.424 5086.792,-0.058 13.342,0 16.35,-2.537 16.344,-16.199 -0.41,-949.033 -0.42,-1898.065 0.05,-2847.098 0.01,-15.227 -4.747,-16.599 -17.813,-16.594 -848.111,0.319 -1696.221,0.288 -2544.332,0.288" /></g><g
                 id="g36"
                 transform="translate(3580.0518,1441.7638)"><path
                   id="path34"
                   style="fill:#13171a;fill-opacity:1;fill-rule:nonzero;stroke:none"
                   d="m 0,0 c 1.597,556.159 -446.513,1009.067 -997.853,1021.044 -576.725,12.528 -1046.284,-453.104 -1044.424,-1023.518 1.83,-560.896 452.632,-1007.131 999.132,-1018.391 C -464.588,-1032.784 1.937,-565.036 0,0 m -1021.814,-1029.733 c -568.697,-2.742 -1044.265,469.377 -1029.469,1057.407 14.007,556.719 478.505,1017.241 1058.371,1002.515 C -436.492,1016.057 24.525,551.812 9.268,-28.452 -5.327,-583.509 -463.149,-1032.573 -1021.814,-1029.733" /></g><g
                 id="g40"
                 transform="translate(2552.2236,1455.7534)"><path
                   id="path38"
                   style="fill:#5393cc;fill-opacity:1;fill-rule:nonzero;stroke:none"
                   d="m 0,0 c -62.416,0.769 -115.511,-51.096 -115.646,-112.967 -0.134,-61.229 50.815,-112.103 113.467,-113.299 62.515,-1.194 115.673,49.893 116.588,112.044 C 115.316,-52.536 63.478,-0.782 0,0 m 313.407,521.221 c 42.293,-17.008 71.903,-47.234 93.486,-85.707 39.055,-69.619 47.258,-144.66 36.298,-222.463 -6.956,-49.376 -25.08,-94.669 -56.995,-138.661 81.594,16.609 139.049,58.932 170.296,131.09 38.004,87.761 26.12,171.423 -36.677,244.161 -54.119,62.687 -124.851,84.458 -206.408,71.58 M -408.023,75.69 c 123.519,0.01 222.016,98.984 224.731,220.536 2.82,126.273 -103.21,230.714 -223.494,229.556 -127.369,-1.225 -226.948,-98.232 -226.967,-223.628 -0.019,-127.909 98.228,-226.475 225.73,-226.464 M -3.774,-886.826 c 66.438,-0.441 131.928,7.012 196.321,22.956 117.242,29.03 222.821,79.344 305.121,170.75 102.52,113.863 109.935,264.059 20.146,385.504 -8.794,11.893 -15.389,13.721 -28.722,6.882 -20.983,-10.764 -43.184,-19.37 -65.367,-27.54 -148.67,-54.756 -302.668,-75.532 -460.522,-71.562 -160.49,4.037 -315.505,32.991 -461.886,101.165 -8.678,4.042 -13.905,4.366 -20.237,-4.129 -64.337,-86.314 -85.774,-180.062 -48.304,-283.297 31.186,-85.921 92.831,-146.727 168.242,-194.229 120.59,-75.961 254.322,-104.992 395.208,-106.5 M 1027.828,-13.99 c 1.938,-565.036 -464.588,-1032.783 -1043.145,-1020.864 -546.5,11.259 -997.302,457.495 -999.132,1018.39 -1.86,570.415 467.699,1036.046 1044.424,1023.518 551.34,-11.977 999.45,-464.885 997.853,-1021.044" /></g><g
                 id="g44"
                 transform="translate(3120.7288,986.6176)"><path
                   id="path42"
                   style="fill:#13171a;fill-opacity:1;fill-rule:nonzero;stroke:none"
                   d="m 0,0 c -14.995,-25.496 -34.343,-45.261 -56.103,-62.976 -4.041,-3.29 -10.232,-5.412 -5.705,-13.033 12.214,-20.563 24.02,-41.367 37.133,-64.058 C -3.559,-93.363 7.138,-48.145 0,0 m -1098.22,-172.951 c 15.598,27.138 30.358,52.876 45.19,78.572 3.024,5.239 2.307,8.521 -3.298,11.949 -35.751,21.861 -67.253,48.117 -86.061,89.296 -10.51,-50.952 7.597,-124.394 44.169,-179.817 M -69.39,-62.65 c 20.116,15.619 38.295,31.495 51.265,52.498 10.338,16.74 18.499,34.624 13.831,54.682 -9.719,41.761 -29.046,79.131 -54.681,113.384 -3.898,5.209 -7.25,7.114 -13.822,3.993 -30.324,-14.398 -61.339,-27.18 -93.327,-37.454 -6.91,-2.22 -8.256,-5.04 -4.376,-11.723 33.675,-58.009 67.045,-116.196 101.11,-175.38 m -1070.041,96.803 c 1.162,-5.885 1.746,-12.134 3.648,-17.951 14.328,-43.804 48.712,-69.238 85.328,-92.602 7.04,-4.491 8.337,1.666 10.556,5.552 32.667,57.212 65.052,114.586 98.039,171.611 5.702,9.857 2.174,11.622 -6.794,14.487 -32.529,10.39 -64.751,21.7 -96.03,35.571 -34.465,15.285 -34.771,15.224 -54.69,-16.732 -19.169,-30.756 -34.071,-63.31 -40.057,-99.936 m 861.579,-198.548 c 6.596,-46.57 12.717,-90.285 19.014,-133.976 2.082,-14.443 -1.885,-35.926 8.778,-41.242 10.812,-5.392 26.37,9.647 39.228,16.763 71.334,39.475 132.772,89.832 174.537,161.361 3.663,6.272 8.329,11.464 2.87,20.077 -11.955,18.864 -22.649,38.535 -33.578,58.033 -3.151,5.621 -5.328,8.683 -12.522,4.099 -57.807,-36.832 -121.997,-57.901 -187.859,-74.472 -8.192,-2.061 -12.594,-4.518 -10.468,-10.643 m -761.703,71.904 c -5.354,-0.323 -6.095,-5.551 -8.071,-8.937 -12.849,-22.022 -24.604,-44.718 -38.251,-66.221 -6.87,-10.825 -5.441,-18.073 1.924,-27.632 49.424,-64.151 113.182,-109.608 185.336,-144.607 10.311,-5.001 12.35,-0.779 14.951,7.81 15.666,51.733 31.373,103.461 47.967,154.9 4.237,13.135 -0.188,15.975 -12.087,18.444 -62.905,13.052 -123.971,31.883 -181.482,61.1 -3.326,1.69 -6.673,3.337 -10.287,5.143 m 759.795,-55.808 c 68.733,16.419 134.412,37.902 194.398,74.76 9.684,5.95 6.533,10.946 2.516,17.899 -31.376,54.316 -62.716,108.655 -93.681,163.205 -4.758,8.382 -9.012,10.501 -18.87,7.264 -33.635,-11.044 -67.874,-20.269 -102.745,-26.561 -11.168,-2.016 -13.923,-6.485 -12.345,-17.402 10.491,-72.573 20.427,-145.225 30.727,-219.165 m -479.746,221.04 c -54.314,8.71 -107.452,18.333 -159.248,33.895 -10.472,3.147 -12.84,-4.229 -16.444,-10.556 -31.67,-55.594 -62.845,-111.479 -95.315,-166.603 -7.34,-12.46 -3.472,-16.007 7.301,-21.274 58.444,-28.571 120.037,-47.191 183.467,-60.698 9.515,-2.026 11.444,0.984 13.776,8.653 21.841,71.827 44.003,143.556 66.463,216.583 m 184.41,-132.848 c 0,34.271 -0.463,68.551 0.251,102.806 0.249,11.962 -1.556,17.451 -15.603,17.695 -50.387,0.873 -100.729,3.699 -150.748,10.252 -7.929,1.039 -10.946,-1.421 -13.148,-8.647 -21.163,-69.459 -42.513,-138.863 -64.129,-208.183 -2.601,-8.342 -0.146,-10.923 7.896,-12.314 73.745,-12.761 148.037,-19.193 222.834,-20.782 11.755,-0.25 12.917,4.959 12.806,14.495 -0.407,34.889 -0.161,69.785 -0.159,104.678 m -0.002,-240.258 c 0,33.012 -0.073,66.025 0.053,99.037 0.03,7.84 0.688,14.129 -11.01,14.309 -75.955,1.169 -151.541,7.092 -226.307,21.027 -10.06,1.874 -12.795,-2.109 -15.311,-10.505 -16.039,-53.538 -32.168,-107.056 -49.19,-160.286 -3.046,-9.526 -1.002,-12.57 7.449,-16.012 90.341,-36.799 184.568,-53.851 281.733,-56.951 11.63,-0.371 12.937,4.363 12.778,14.084 -0.517,31.758 -0.194,63.53 -0.195,95.297 m 8.206,2.009 c 0,-32.44 0.62,-64.899 -0.319,-97.312 -0.353,-12.166 3.784,-14.431 14.825,-14.041 95.357,3.375 187.884,20.055 276.859,55.546 12.796,5.104 14.833,11.428 13.066,23.482 -7.862,53.601 -15.24,107.277 -22.278,160.993 -1.179,8.992 -3.583,11.327 -12.917,9.307 -84.358,-18.264 -169.918,-25.726 -256.082,-26.623 -11.032,-0.115 -13.524,-3.837 -13.353,-14.034 0.544,-32.431 0.202,-64.877 0.199,-97.318 m 0,238.376 c 0,-34.257 0.606,-68.531 -0.308,-102.764 -0.35,-13.076 3.29,-16.852 16.511,-16.597 82.91,1.597 165.074,9.491 246.564,25.134 14.882,2.856 16.352,8.757 14.258,22.365 -8.982,58.371 -16.984,116.902 -24.532,175.48 -4.93,38.249 -4.421,39.064 -42.059,33.2 -64.648,-10.072 -129.677,-15.289 -195.005,-16.46 -13.913,-0.25 -15.951,-5.515 -15.689,-17.591 0.742,-34.242 0.26,-68.51 0.26,-102.767 m -5.388,-357.71 c -140.886,1.508 -274.617,30.539 -395.207,106.499 -75.411,47.502 -137.057,108.309 -168.242,194.23 -37.47,103.235 -16.033,196.983 48.304,283.297 6.332,8.495 11.559,8.171 20.237,4.129 146.381,-68.174 301.396,-97.128 461.886,-101.165 157.854,-3.97 311.852,16.806 460.522,71.562 22.183,8.17 44.384,16.776 65.366,27.539 13.334,6.84 19.929,5.012 28.723,-6.882 89.789,-121.444 82.374,-271.64 -20.146,-385.503 -82.3,-91.406 -187.88,-141.72 -305.121,-170.75 -64.393,-15.944 -129.883,-23.398 -196.322,-22.956" /></g><g
                 id="g48"
                 transform="translate(2143.478,1972.6559)"><path
                   id="path46"
                   style="fill:#13171a;fill-opacity:1;fill-rule:nonzero;stroke:none"
                   d="m 0,0 c -119.81,0.004 -216.933,-97.669 -216.869,-218.097 0.063,-116.906 98.666,-214.511 216.713,-214.518 119.28,-0.007 216.439,97.061 216.444,216.241 C 216.292,-97.122 119.213,-0.004 0,0 m 0.723,-441.213 c -127.503,-0.01 -225.749,98.556 -225.73,226.464 C -224.988,-89.352 -125.409,7.654 1.959,8.88 122.243,10.037 228.274,-94.403 225.453,-220.676 222.739,-342.229 124.242,-441.202 0.723,-441.213" /></g><g
                 id="g52"
                 transform="translate(2897.5684,1972.1018)"><path
                   id="path50"
                   style="fill:#13171a;fill-opacity:1;fill-rule:nonzero;stroke:none"
                   d="m 0,0 c 113.55,-74.201 149.23,-280.84 65.829,-424.121 84.062,7.822 162.439,118.47 156.563,221.026 C 215.844,-88.803 115.654,3.969 0,0 m -31.937,4.872 c 81.556,12.879 152.288,-8.892 206.408,-71.579 62.797,-72.739 74.68,-156.4 36.676,-244.161 -31.247,-72.158 -88.701,-114.481 -170.296,-131.091 31.915,43.993 50.039,89.286 56.995,138.662 10.96,77.802 2.757,152.844 -36.298,222.462 -21.583,38.473 -51.193,68.7 -93.485,85.707" /></g><g
                 id="g56"
                 transform="translate(2551.7654,1238.1493)"><path
                   id="path54"
                   style="fill:#13171a;fill-opacity:1;fill-rule:nonzero;stroke:none"
                   d="M 0,0 C 58.821,0.126 106.688,47.498 106.208,105.112 105.733,162.236 58.806,208.376 0.609,208.94 -57.99,209.507 -106.293,162.545 -106.526,104.777 -106.759,47.115 -58.73,-0.126 0,0 M 0.458,217.604 C 63.936,216.822 115.775,165.068 114.867,103.382 113.952,41.231 60.794,-9.856 -1.721,-8.662 c -62.652,1.196 -113.6,52.07 -113.467,113.299 0.136,61.871 53.23,113.736 115.646,112.967" /></g><g
                 id="g60"
                 transform="translate(2553.8367,926.6375)"><path
                   id="path58"
                   style="fill:#fefefe;fill-opacity:1;fill-rule:nonzero;stroke:none"
                   d="m 0,0 c 0,34.258 0.482,68.525 -0.26,102.767 -0.262,12.077 1.776,17.341 15.689,17.591 65.328,1.171 130.357,6.388 195.005,16.46 37.638,5.864 37.129,5.049 42.059,-33.2 7.549,-58.578 15.55,-117.109 24.532,-175.48 2.094,-13.608 0.624,-19.509 -14.258,-22.365 -81.49,-15.643 -163.654,-23.537 -246.564,-25.134 -13.221,-0.255 -16.86,3.522 -16.511,16.597 C 0.606,-68.531 0,-34.257 0,0" /></g><g
                 id="g64"
                 transform="translate(2553.8381,688.2617)"><path
                   id="path62"
                   style="fill:#fefefe;fill-opacity:1;fill-rule:nonzero;stroke:none"
                   d="m 0,0 c 0.001,32.441 0.344,64.887 -0.2,97.318 -0.172,10.196 2.321,13.919 13.353,14.034 86.164,0.897 171.724,8.359 256.082,26.623 9.333,2.02 11.738,-0.315 12.916,-9.307 7.039,-53.716 14.416,-107.392 22.278,-160.994 1.768,-12.053 -0.269,-18.377 -13.065,-23.481 -88.975,-35.491 -181.502,-52.171 -276.86,-55.546 -11.041,-0.391 -15.178,1.875 -14.825,14.041 C 0.619,-64.899 -0.001,-32.441 0,0" /></g><g
                 id="g68"
                 transform="translate(2545.6311,686.2525)"><path
                   id="path66"
                   style="fill:#fefefe;fill-opacity:1;fill-rule:nonzero;stroke:none"
                   d="m 0,0 c 0.001,-31.767 -0.322,-63.539 0.195,-95.297 0.158,-9.721 -1.148,-14.455 -12.778,-14.084 -97.165,3.101 -191.393,20.152 -281.733,56.951 -8.451,3.442 -10.496,6.486 -7.45,16.012 17.022,53.23 33.151,106.748 49.191,160.286 2.515,8.396 5.25,12.379 15.31,10.505 74.767,-13.935 150.352,-19.858 226.307,-21.027 C 0.741,113.166 0.083,106.877 0.053,99.037 -0.074,66.025 -0.001,33.013 0,0" /></g><g
                 id="g72"
                 transform="translate(2545.6316,926.5109)"><path
                   id="path70"
                   style="fill:#fefefe;fill-opacity:1;fill-rule:nonzero;stroke:none"
                   d="m 0,0 c -0.001,-34.894 -0.246,-69.79 0.16,-104.679 0.111,-9.536 -1.051,-14.744 -12.806,-14.494 -74.797,1.589 -149.089,8.021 -222.833,20.781 -8.042,1.392 -10.498,3.973 -7.896,12.315 21.615,69.32 42.965,138.723 64.129,208.183 2.201,7.225 5.218,9.685 13.147,8.647 50.02,-6.553 100.361,-9.379 150.748,-10.253 C -1.304,120.257 0.501,114.768 0.252,102.806 -0.461,68.55 0.001,34.27 0,0" /></g><g
                 id="g76"
                 transform="translate(2361.2224,1059.3588)"><path
                   id="path74"
                   style="fill:#fefefe;fill-opacity:1;fill-rule:nonzero;stroke:none"
                   d="m 0,0 c -22.459,-73.027 -44.622,-144.756 -66.462,-216.583 -2.332,-7.669 -4.262,-10.679 -13.777,-8.653 -63.43,13.507 -125.022,32.127 -183.467,60.698 -10.773,5.266 -14.641,8.814 -7.301,21.274 32.47,55.123 63.645,111.009 95.316,166.603 3.604,6.326 5.971,13.702 16.443,10.556 C -107.451,18.332 -54.313,8.71 0,0" /></g><g
                 id="g80"
                 transform="translate(2840.9688,838.3182)"><path
                   id="path78"
                   style="fill:#fefefe;fill-opacity:1;fill-rule:nonzero;stroke:none"
                   d="m 0,0 c -10.3,73.94 -20.236,146.593 -30.727,219.165 -1.578,10.918 1.177,15.387 12.345,17.402 34.871,6.293 69.11,15.517 102.745,26.562 9.858,3.236 14.112,1.118 18.87,-7.264 30.965,-54.55 62.305,-108.889 93.681,-163.205 4.017,-6.954 7.168,-11.95 -2.516,-17.9 C 134.412,37.902 68.733,16.419 0,0" /></g><g
                 id="g84"
                 transform="translate(2081.1733,894.1268)"><path
                   id="path82"
                   style="fill:#fefefe;fill-opacity:1;fill-rule:nonzero;stroke:none"
                   d="m 0,0 c 3.614,-1.806 6.961,-3.453 10.287,-5.143 57.511,-29.218 118.577,-48.048 181.482,-61.1 11.899,-2.47 16.325,-5.309 12.087,-18.444 -16.593,-51.439 -32.301,-103.167 -47.966,-154.9 -2.601,-8.589 -4.64,-12.812 -14.952,-7.81 -72.153,34.999 -135.912,80.456 -185.336,144.606 -7.365,9.56 -8.794,16.808 -1.923,27.633 13.646,21.503 25.401,44.199 38.25,66.22 C -6.095,-5.551 -5.353,-0.324 0,0" /></g><g
                 id="g88"
                 transform="translate(2842.8767,822.2225)"><path
                   id="path86"
                   style="fill:#fefefe;fill-opacity:1;fill-rule:nonzero;stroke:none"
                   d="m 0,0 c -2.126,6.125 2.276,8.582 10.468,10.644 65.862,16.57 130.052,37.639 187.859,74.471 7.194,4.584 9.371,1.522 12.522,-4.099 C 221.778,61.518 232.472,41.847 244.427,22.983 249.886,14.37 245.22,9.178 241.557,2.906 199.792,-68.623 138.354,-118.98 67.02,-158.455 c -12.858,-7.116 -28.416,-22.154 -39.228,-16.763 -10.663,5.317 -6.696,26.799 -8.778,41.242 C 12.717,-90.285 6.596,-46.57 0,0" /></g><g
                 id="g92"
                 transform="translate(1981.2982,1020.7708)"><path
                   id="path90"
                   style="fill:#fefefe;fill-opacity:1;fill-rule:nonzero;stroke:none"
                   d="m 0,0 c 5.986,36.625 20.887,69.18 40.057,99.935 19.919,31.957 20.224,32.017 54.69,16.733 31.278,-13.871 63.501,-25.182 96.029,-35.571 8.969,-2.865 12.497,-4.63 6.795,-14.487 -32.988,-57.025 -65.372,-114.399 -98.04,-171.611 -2.219,-3.886 -3.515,-10.043 -10.555,-5.552 C 52.359,-87.189 17.975,-61.755 3.648,-17.951 1.745,-12.134 1.162,-5.885 0,0" /></g><g
                 id="g96"
                 transform="translate(3051.3389,923.9674)"><path
                   id="path94"
                   style="fill:#fefefe;fill-opacity:1;fill-rule:nonzero;stroke:none"
                   d="m 0,0 c -34.065,59.184 -67.435,117.371 -101.11,175.38 -3.88,6.683 -2.534,9.503 4.376,11.723 31.988,10.275 63.003,23.056 93.327,37.455 6.572,3.12 9.924,1.215 13.822,-3.993 C 36.05,186.312 55.377,148.942 65.096,107.181 69.764,87.122 61.603,69.238 51.265,52.498 38.295,31.495 20.115,15.619 0,0" /></g><g
                 id="g100"
                 transform="translate(2022.5085,813.667)"><path
                   id="path98"
                   style="fill:#fefefe;fill-opacity:1;fill-rule:nonzero;stroke:none"
                   d="M 0,0 C -36.571,55.423 -54.678,128.864 -44.169,179.816 -25.36,138.638 6.142,112.381 41.892,90.52 47.497,87.093 48.214,83.81 45.19,78.571 30.358,52.875 15.598,27.138 0,0" /></g><g
                 id="g104"
                 transform="translate(3120.7288,986.6176)"><path
                   id="path102"
                   style="fill:#fefefe;fill-opacity:1;fill-rule:nonzero;stroke:none"
                   d="m 0,0 c 7.138,-48.145 -3.559,-93.363 -24.675,-140.067 -13.113,22.691 -24.919,43.495 -37.133,64.058 -4.527,7.621 1.664,9.743 5.705,13.033 C -34.343,-45.261 -14.995,-25.496 0,0" /></g><g
                 id="g108"
                 transform="translate(2143.478,1972.6559)"><path
                   id="path106"
                   style="fill:#fefefe;fill-opacity:1;fill-rule:nonzero;stroke:none"
                   d="m 0,0 c 119.213,-0.004 216.292,-97.122 216.288,-216.374 -0.005,-119.18 -97.164,-216.248 -216.444,-216.241 -118.047,0.007 -216.65,97.612 -216.713,214.518 C -216.933,-97.669 -119.81,0.004 0,0" /></g><g
                 id="g112"
                 transform="translate(2897.5684,1972.1018)"><path
                   id="path110"
                   style="fill:#fefefe;fill-opacity:1;fill-rule:nonzero;stroke:none"
                   d="M 0,0 C 115.654,3.969 215.844,-88.803 222.392,-203.095 228.268,-305.651 149.891,-416.299 65.829,-424.121 149.23,-280.84 113.55,-74.201 0,0" /></g><g
                 id="g116"
                 transform="translate(2551.7654,1238.1493)"><path
                   id="path114"
                   style="fill:#fefefe;fill-opacity:1;fill-rule:nonzero;stroke:none"
                   d="M 0,0 C -58.73,-0.126 -106.759,47.115 -106.526,104.777 -106.293,162.545 -57.99,209.507 0.609,208.94 58.806,208.376 105.733,162.236 106.208,105.112 106.688,47.498 58.821,0.126 0,0" /></g></g></g></g></g></g></g></svg>