<?xml version="1.0" encoding="UTF-8" standalone="no"?>
<svg
   xmlns:dc="http://purl.org/dc/elements/1.1/"
   xmlns:cc="http://creativecommons.org/ns#"
   xmlns:rdf="http://www.w3.org/1999/02/22-rdf-syntax-ns#"
   xmlns:svg="http://www.w3.org/2000/svg"
   xmlns="http://www.w3.org/2000/svg"
   viewBox="0 0 426.66666 426.66666"
   height="426.66666"
   width="426.66666"
   xml:space="preserve"
   id="svg2"
   version="1.1"><metadata
     id="metadata8"><rdf:RDF><cc:Work
         rdf:about=""><dc:format>image/svg+xml</dc:format><dc:type
           rdf:resource="http://purl.org/dc/dcmitype/StillImage" /></cc:Work></rdf:RDF></metadata><defs
     id="defs6"><clipPath
       id="clipPath18"
       clipPathUnits="userSpaceOnUse"><path
         id="path16"
         d="M 0,320 H 320 V 0 H 0 Z" /></clipPath><clipPath
       id="clipPath26"
       clipPathUnits="userSpaceOnUse"><path
         id="path24"
         d="M 0,320 H 320 V 0 H 0 Z" /></clipPath></defs><g
     transform="matrix(1.3333333,0,0,-1.3333333,0,426.66667)"
     id="g10"><g
       id="g12"><g
         clip-path="url(#clipPath18)"
         id="g14"><g
           id="g20"><g
             id="g22" /><g
             id="g66"><g
               id="g64"
               clip-path="url(#clipPath26)"><g
                 id="g30"
                 transform="translate(203.85,105.03)"><path
                   id="path28"
                   style="fill:#ffffff;fill-opacity:1;fill-rule:nonzero;stroke:none"
                   d="M 0,0 C 9.82,19.65 11.84,40.01 4.61,60.98 3.35,64.65 1.82,68.23 0.1,72.4 c -0.39,0.96 -0.8,1.96 -1.21,3 -2.82,-3.12 -4.54,-5.03 -6.44,-7.13 -6.65,29.01 -14.47,57.43 -30.65,82.85 -1.08,1.69 -2.19,3.37 -3.35,5.04 -3.23,-21.7 -9.85,-41.87 -20.46,-60.37 -4.91,3.89 -9.11,7.21 -13.74,10.88 -10.38,-23.76 -18.99,-46.68 -16.88,-72.73 -3.56,3.04 -6.4,5.48 -9.24,7.91 -0.59,-0.41 -1.18,-0.82 -1.76,-1.22 0.81,-5.98 0.88,-12.18 2.58,-17.9 1.6,-5.4 3.67,-10.34 6.21,-14.78 8.21,-14.49 21.37,-23.75 39.69,-27.16 4.85,-0.91 9.93,-2.08 14.72,-1.55 6.51,0.72 13.12,2.28 19.19,4.72 C -12.87,-12.66 -4.36,-8.73 0,0 m 116.15,-105.03 h -320 v 320 h 320 z" /></g><g
                 id="g34"
                 transform="translate(208.03,123.42)"><path
                   id="path32"
                   style="fill:#2b2b2a;fill-opacity:1;fill-rule:nonzero;stroke:none"
                   d="m 0,0 c 3.51,10.23 2.19,20.78 0.7,31.09 -1.05,7.33 -3.72,14.44 -5.91,22.51 l 1.13,0.41 c 1.72,-4.17 3.25,-7.75 4.51,-11.42 7.23,-20.97 5.21,-41.33 -4.61,-60.98 -4.36,-8.73 -12.87,-12.66 -21.24,-16.04 -6.07,-2.44 -12.68,-4 -19.19,-4.72 -4.79,-0.53 -9.87,0.64 -14.72,1.55 -18.32,3.41 -31.48,12.67 -39.69,27.16 l 1.58,0.9 c 4.72,-8.1 11.94,-14.37 20.56,-19.24 12.43,-7.02 26.43,-9.12 40.56,-5.51 6.73,1.73 13.41,4.2 19.6,7.35 C -5.94,-21.46 -3.51,-10.24 0,0" /></g><g
                 id="g38"
                 transform="translate(175.44,103.58)"><path
                   id="path36"
                   style="fill:#4481c2;fill-opacity:1;fill-rule:nonzero;stroke:none"
                   d="m 0,0 c 5.16,7.9 5.54,16.51 4.11,25.26 -1.19,7.25 -3.16,7.68 -8.43,2.77 -0.17,-0.16 -0.52,-0.12 -0.36,-0.09 -3.6,10.85 -7.1,21.64 -10.8,32.36 -0.56,1.63 -1.98,2.97 -3.01,4.45 -0.64,-1.55 -1.57,-3.05 -1.88,-4.67 -1.64,-8.58 -2.84,-17.25 -4.76,-25.77 -1.97,-8.7 -2.35,-8.67 -8.7,-2.31 -0.65,-1.15 -1.27,-1.95 -1.59,-2.85 -0.26,-0.74 -0.44,-1.58 -0.57,-2.51 -1.17,-8.87 3.55,-25.36 9.15,-30.36 C -17.95,-11.65 -6.49,-9.92 0,0 M 33.29,50.93 C 34.78,40.62 36.1,30.07 32.59,19.84 29.08,9.6 26.65,-1.62 15.87,-7.1 9.68,-10.25 3,-12.72 -3.73,-14.45 c -14.13,-3.61 -28.13,-1.51 -40.56,5.51 -8.62,4.87 -15.84,11.14 -20.56,19.24 -2.84,4.86 -4.78,10.39 -5.58,16.67 -0.38,2.93 -0.85,5.85 -1.43,9.75 3.33,-2.71 5.89,-4.81 8.46,-6.91 0.53,0.07 1.05,0.13 1.58,0.2 -0.15,1.83 -0.26,3.64 -0.32,5.45 -0.86,24.09 5.85,46.52 16.17,69.08 4.09,-4.07 7.9,-7.86 11.99,-11.93 5.9,3.21 8.24,9.92 10.41,16.2 4.01,11.63 7.13,23.56 10.51,35.4 0.62,2.18 0.69,4.53 1.21,8.16 16.46,-27.81 24.46,-57.45 30.92,-88.76 2.89,3.41 5.15,6.08 8.31,9.83 2.19,-8.07 4.86,-15.18 5.91,-22.51" /></g><g
                 id="g42"
                 transform="translate(203.95,177.43)"><path
                   id="path40"
                   style="fill:#2b2b2a;fill-opacity:1;fill-rule:nonzero;stroke:none"
                   d="m 0,0 -1.13,-0.41 c -3.16,-3.75 -5.42,-6.42 -8.31,-9.83 -6.46,31.31 -14.46,60.95 -30.92,88.76 l 2.06,0.2 c 16.18,-25.42 24,-53.84 30.65,-82.85 1.9,2.1 3.62,4.01 6.44,7.13 C -0.8,1.96 -0.39,0.96 0,0" /></g><g
                 id="g46"
                 transform="translate(179.55,128.84)"><path
                   id="path44"
                   style="fill:#2b2b2a;fill-opacity:1;fill-rule:nonzero;stroke:none"
                   d="m 0,0 c 1.43,-8.75 1.05,-17.36 -4.11,-25.26 -6.49,-9.92 -17.95,-11.65 -26.84,-3.72 -5.6,5 -10.32,21.49 -9.15,30.36 l 1.66,-0.05 c 1.72,-7.5 2.69,-15.28 5.36,-22.41 3.86,-10.31 15.15,-13.24 23.06,-6.83 7.93,6.41 10.91,21.59 6.04,30.7 -6.26,-4.62 -7.49,-4.21 -9.38,3.13 -0.45,1.76 -0.67,3.58 -1.17,5.32 -2.21,7.73 -4.49,15.45 -6.75,23.17 l 1.69,0.63 c 3.7,-10.72 7.2,-21.51 10.8,-32.36 C -8.95,2.65 -8.6,2.61 -8.43,2.77 -3.16,7.68 -1.19,7.25 0,0" /></g><g
                 id="g50"
                 transform="translate(175.57,131.63)"><path
                   id="path48"
                   style="fill:#7fc8f0;fill-opacity:1;fill-rule:nonzero;stroke:none"
                   d="m 0,0 c 4.87,-9.11 1.89,-24.29 -6.04,-30.7 -7.91,-6.41 -19.2,-3.48 -23.06,6.83 -2.67,7.13 -3.64,14.91 -5.36,22.41 0.49,0.14 0.98,0.27 1.47,0.41 5.57,-4.78 8.05,-1.95 9.23,3.22 2.18,9.63 3.66,19.42 6.46,29.45 2.26,-7.72 4.54,-15.44 6.75,-23.17 0.5,-1.74 0.72,-3.56 1.17,-5.32 C -7.49,-4.21 -6.26,-4.62 0,0" /></g><g
                 id="g54"
                 transform="translate(165.65,256.15)"><path
                   id="path52"
                   style="fill:#2b2b2a;fill-opacity:1;fill-rule:nonzero;stroke:none"
                   d="m 0,0 -2.06,-0.2 c -0.52,-3.63 -0.59,-5.98 -1.21,-8.16 -3.38,-11.84 -6.5,-23.77 -10.51,-35.4 -2.17,-6.28 -4.51,-12.99 -10.41,-16.2 -4.09,4.07 -7.9,7.86 -11.99,11.93 -10.32,-22.56 -17.03,-44.99 -16.17,-69.08 l -2.08,-0.07 c -2.11,26.05 6.5,48.97 16.88,72.73 4.63,-3.67 8.83,-6.99 13.74,-10.88 10.61,18.5 17.23,38.67 20.46,60.37 C -2.19,3.37 -1.08,1.69 0,0" /></g><g
                 id="g58"
                 transform="translate(159.96,163.88)"><path
                   id="path56"
                   style="fill:#2b2b2a;fill-opacity:1;fill-rule:nonzero;stroke:none"
                   d="m 0,0 -1.69,-0.63 c -2.8,-10.03 -4.28,-19.82 -6.46,-29.45 -1.18,-5.17 -3.66,-8 -9.23,-3.22 -0.49,-0.14 -0.98,-0.27 -1.47,-0.41 l -1.66,0.05 c 0.13,0.93 0.31,1.77 0.57,2.51 0.32,0.9 0.94,1.7 1.59,2.85 6.35,-6.36 6.73,-6.39 8.7,2.31 1.92,8.52 3.12,17.19 4.76,25.77 0.31,1.62 1.24,3.12 1.88,4.67 C -1.98,2.97 -0.56,1.63 0,0" /></g><g
                 id="g62"
                 transform="translate(113.62,133.59)"><path
                   id="path60"
                   style="fill:#2b2b2a;fill-opacity:1;fill-rule:nonzero;stroke:none"
                   d="m 0,0 c -0.53,-0.07 -1.05,-0.13 -1.58,-0.2 -2.57,2.1 -5.13,4.2 -8.46,6.91 0.58,-3.9 1.05,-6.82 1.43,-9.75 0.8,-6.28 2.74,-11.81 5.58,-16.67 l -1.58,-0.9 c -2.54,4.44 -4.61,9.38 -6.21,14.78 -1.7,5.72 -1.77,11.92 -2.58,17.9 0.58,0.4 1.17,0.81 1.76,1.22 2.84,-2.43 5.68,-4.87 9.24,-7.91 l 2.08,0.07 C -0.26,3.64 -0.15,1.83 0,0" /></g></g></g></g></g></g></g></svg>