<?xml version="1.0" encoding="UTF-8"?>
<svg id="Calque_1" xmlns="http://www.w3.org/2000/svg" version="1.1" viewBox="0 0 320.5 320.5">
  <!-- Generator: Adobe Illustrator 29.8.2, SVG Export Plug-In . SVG Version: 2.1.1 Build 3)  -->
  <defs>
    <style>
      .st0 {
        fill: #7cc7ef;
      }

      .st1 {
        fill: #3d7ec1;
      }
    </style>
  </defs>
  <path d="M208.3,196.8c3.5-10.2,2.2-20.8.7-31.1-1.1-7.3-3.7-14.4-5.9-22.5l1.1-.4c1.7,4.2,3.2,7.8,4.5,11.4,7.2,21,5.2,41.3-4.6,61-4.4,8.7-12.9,12.7-21.2,16-6.1,2.4-12.7,4-19.2,4.7-4.8.5-9.9-.6-14.7-1.6-18.3-3.4-31.5-12.7-39.7-27.2l1.6-.9c4.7,8.1,11.9,14.4,20.6,19.2,12.4,7,26.4,9.1,40.6,5.5,6.7-1.7,13.4-4.2,19.6-7.4,10.8-5.5,13.2-16.7,16.7-26.9h0Z"/>
  <path class="st1" d="M209,165.7c1.5,10.3,2.8,20.9-.7,31.1-3.5,10.2-5.9,21.5-16.7,26.9-6.2,3.1-12.9,5.6-19.6,7.4-14.1,3.6-28.1,1.5-40.6-5.5-8.6-4.9-15.8-11.1-20.6-19.2-2.8-4.9-4.8-10.4-5.6-16.7-.4-2.9-.8-5.9-1.4-9.8,3.3,2.7,5.9,4.8,8.5,6.9.5,0,1.1-.1,1.6-.2-.2-1.8-.3-3.6-.3-5.4-.9-24.1,5.8-46.5,16.2-69.1,4.1,4.1,7.9,7.9,12,11.9,5.9-3.2,8.2-9.9,10.4-16.2,4-11.6,7.1-23.6,10.5-35.4.6-2.2.7-4.5,1.2-8.2,16.5,27.8,24.5,57.4,30.9,88.8,2.9-3.4,5.1-6.1,8.3-9.8,2.2,8.1,4.9,15.2,5.9,22.5h0ZM175.7,216.7c5.2-7.9,5.5-16.5,4.1-25.3-1.2-7.2-3.2-7.7-8.4-2.8-.2.2-.5.1-.4,0-3.6-10.9-7.1-21.6-10.8-32.4-.6-1.6-2-3-3-4.4-.6,1.6-1.6,3.1-1.9,4.7-1.6,8.6-2.8,17.2-4.8,25.8-2,8.7-2.4,8.7-8.7,2.3-.6,1.1-1.3,1.9-1.6,2.9-.3.7-.4,1.6-.6,2.5-1.2,8.9,3.6,25.4,9.1,30.4,8.9,7.9,20.4,6.2,26.8-3.7h0Z"/>
  <path d="M204.2,142.8l-1.1.4c-3.2,3.8-5.4,6.4-8.3,9.8-6.5-31.3-14.5-60.9-30.9-88.8l2.1-.2c16.2,25.4,24,53.8,30.6,82.8,1.9-2.1,3.6-4,6.4-7.1.4,1,.8,2,1.2,3Z"/>
  <path d="M179.8,191.4c1.4,8.8,1.1,17.4-4.1,25.3-6.5,9.9-17.9,11.6-26.8,3.7-5.6-5-10.3-21.5-9.1-30.4h1.7c1.7,7.6,2.7,15.3,5.4,22.5,3.9,10.3,15.1,13.2,23.1,6.8,7.9-6.4,10.9-21.6,6-30.7-6.3,4.6-7.5,4.2-9.4-3.1-.4-1.8-.7-3.6-1.2-5.3-2.2-7.7-4.5-15.4-6.8-23.2l1.7-.6c3.7,10.7,7.2,21.5,10.8,32.4-.2,0,.2,0,.4,0,5.3-4.9,7.2-4.5,8.4,2.8h0Z"/>
  <path class="st0" d="M175.8,188.6c4.9,9.1,1.9,24.3-6,30.7-7.9,6.4-19.2,3.5-23.1-6.8-2.7-7.1-3.6-14.9-5.4-22.4.5-.1,1-.3,1.5-.4,5.6,4.8,8.1,1.9,9.2-3.2,2.2-9.6,3.7-19.4,6.5-29.4,2.3,7.7,4.5,15.4,6.8,23.2.5,1.7.7,3.6,1.2,5.3,1.9,7.3,3.1,7.8,9.4,3.1h0Z"/>
  <path d="M165.9,64.1l-2.1.2c-.5,3.6-.6,6-1.2,8.2-3.4,11.8-6.5,23.8-10.5,35.4-2.2,6.3-4.5,13-10.4,16.2-4.1-4.1-7.9-7.9-12-11.9-10.3,22.6-17,45-16.2,69.1h-2.1c-2.1-26,6.5-48.9,16.9-72.7,4.6,3.7,8.8,7,13.7,10.9,10.6-18.5,17.2-38.7,20.5-60.4,1.2,1.7,2.3,3.3,3.4,5Z"/>
  <path d="M160.2,156.4l-1.7.6c-2.8,10-4.3,19.8-6.5,29.4-1.2,5.2-3.7,8-9.2,3.2-.5.1-1,.3-1.5.4h-1.7c.1-1,.3-1.8.6-2.6.3-.9.9-1.7,1.6-2.9,6.4,6.4,6.7,6.4,8.7-2.3,1.9-8.5,3.1-17.2,4.8-25.8.3-1.6,1.2-3.1,1.9-4.7,1,1.5,2.4,2.8,3,4.4h0Z"/>
  <path d="M113.9,186.7c-.5,0-1.1.1-1.6.2-2.6-2.1-5.1-4.2-8.5-6.9.6,3.9,1.1,6.8,1.4,9.8.8,6.3,2.7,11.8,5.6,16.7l-1.6.9c-2.5-4.4-4.6-9.4-6.2-14.8-1.7-5.7-1.8-11.9-2.6-17.9.6-.4,1.2-.8,1.8-1.2,2.8,2.4,5.7,4.9,9.2,7.9h2.1c0,1.7.2,3.5.3,5.4h0Z"/>
</svg>