<?xml version="1.0" encoding="UTF-8"?>
<svg id="Calque_1" data-name="Calque 1" xmlns="http://www.w3.org/2000/svg" viewBox="0 0 5120 2880">
  <g id="Calque_3" data-name="Calque 3">
    <g>
      <path d="M2472.22,409.33c875.82-58.79,1438.46,904.02,928.94,1625.46-466.57,660.62-1485.71,545.44-1795.13-199.79-265.05-638.36,173.87-1379.2,866.19-1425.66ZM2472.21,420.56c-663.37,43.67-1098.09,740.47-874.71,1363.05,293.13,817,1422.86,915.38,1849.93,158.88,408.13-722.94-154.94-1575.93-975.22-1521.93Z" style="fill: #13171a;"/>
      <path d="M2472.21,420.56c820.28-54,1383.35,798.99,975.22,1521.93-427.08,756.49-1556.81,658.12-1849.93-158.88-223.37-622.58,211.34-1319.37,874.71-1363.05ZM2105.02,899.79c-73.82,9.25-147.18,72.58-173.2,141.4-76.83,203.21,146.3,388.52,331.12,274.92,204.61-125.76,97.22-448.3-157.92-416.32ZM2943.03,898.83c-24.5-3.31-55.25,2.43-80.53,0-2.03,10.87,3.12,5.98,8.23,8.46,137.96,66.85,156.71,271.14,95.55,396.8-15.31,31.45-51,56.63,10.58,36.79,222.89-71.79,187.93-412.05-33.83-442.05ZM2535.74,1424.13c-147.26,19.3-121.3,242.48,28.62,227.05,151.14-15.56,125.5-247.25-28.62-227.05ZM2041.17,1719.51c-10.67,2.69-42.44,59.19-48.24,71.89-51.2,111.98-26,231.77,52.98,322.82,229.02,264.04,781.59,263.36,1009.55-1.92,99.1-115.32,106.59-278.39,2.91-392.79-47.08,17.23-92.39,38.27-140.54,52.93-241.24,73.43-543.26,69.87-781.06-14.96-13.83-4.93-90.42-39.27-95.58-37.97Z" style="fill: #5393cc;"/>
      <path d="M2041.17,1719.51c5.16-1.3,81.75,33.03,95.58,37.97,237.8,84.84,539.82,88.39,781.06,14.96,48.15-14.66,93.46-35.7,140.54-52.93,103.69,114.4,96.19,277.47-2.91,392.79-227.95,265.28-780.52,265.96-1009.55,1.92-78.97-91.05-104.18-210.84-52.98-322.82,5.8-12.69,37.58-69.2,48.24-71.89ZM2079.41,1969.67l101.3-184.87-136.03-53.95c-10.25,1.86-39.06,56.22-44.27,68.03-22.24,50.48-26.89,77.33,9.97,122.41,8.28,10.13,58.69,55.66,69.03,48.38ZM3049.86,1954.95c28.83-15.92,67.53-61.28,67.62-95.48.06-21.93-43.42-125.13-62.63-128.62-8.71-1.58-89.31,39.94-106.31,42.61l101.32,181.5ZM2840.06,2041.08c70.56-16.72,142.44-38.56,201.97-80.89l-106.35-184.18-125.51,32.99,29.9,232.07ZM2360.61,1820.15l-168.55-32.1-108.54,187.51c20.19,21.25,198.3,78.36,209.33,68.9l67.75-224.31ZM2555.38,1835.11v235.94c93.24,1.51,186.39-9.03,277.22-28.14l-33.51-228.67-243.71,20.87ZM2544.15,1835.11l-175.66-10.83-67.91,222.13c78.31,19.93,162.37,24.12,243.57,24.65v-235.94ZM2067.99,1977.97c-1.73-2.96-46.67-30.47-55.84-39.72-14.73-14.86-22.73-35.84-37.27-50.71-3.29,61.06,12.15,122.63,44.88,174.21,4.03,2.9,8.61-5.06,10.65-8.17,8.29-12.67,31.95-52.39,36.44-64.8,1.2-3.31,3.07-7.52,1.14-10.82ZM3098.42,2029.85c4.81-16.37,12.77-32.03,16.93-48.64,3.64-14.54,17.76-83.72,3.69-89.9-11.99,31.21-38.22,51.03-61.4,73.55,3.65,6.35,35.52,68.89,40.77,64.99ZM2866.27,2232.11c8.82,8.93,89.65-44.06,102.29-53.14,34.5-24.77,66.44-53.64,91.82-87.95,5.54-7.48,29.22-41.91,29.19-48.06-.02-4.09-36.22-69.28-39.7-71.43-64.95,34.13-132.96,64.99-206.03,77.13l22.43,183.45ZM2289.45,2056.11c-73.45-12.11-143.16-38.6-211.1-67.76-7.56,17.47-48.77,73.24-47.35,88.1,1.75,18.29,64.08,74.94,80.71,88.08,36.18,28.59,78.57,54.5,121.52,71.31l56.23-179.73ZM2555.38,2082.29v220.96c104.65-3.27,205.61-22.71,303.03-60.24l-25.91-190.7c-90.39,22-184.31,28.66-277.12,29.99ZM2544.15,2082.29c-82.85-.02-165.02-10.46-246.75-22.01l-56.65,183.01c97.93,36.74,198.48,56.94,303.4,59.97v-220.96Z" style="fill: #13171a;"/>
      <path d="M2105.02,899.79c255.14-31.98,362.53,290.57,157.92,416.32-184.82,113.6-407.95-71.71-331.12-274.92,26.02-68.82,99.38-132.15,173.2-141.4ZM2105.02,911.02c-64.52,8.2-130.47,61.72-157.09,120.06-79.67,174.64,83.65,356.16,266.47,296.41,233.82-76.43,170.77-452.08-109.38-416.47Z" style="fill: #13171a;"/>
      <path d="M2943.03,898.83c221.76,30,256.72,370.26,33.83,442.05-61.58,19.84-25.88-5.34-10.58-36.79,61.16-125.66,42.41-329.95-95.55-396.8-5.11-2.48-10.27,2.41-8.23-8.46,25.27,2.43,56.02-3.31,80.53,0ZM2963.65,1333.25c242.36-75.79,186.54-427.18-67.42-426.89l46.85,41.11c71.9,84.3,81.67,226.03,46.83,327.81-6.94,20.28-17.32,38.7-26.26,57.97Z" style="fill: #13171a;"/>
      <path d="M2535.74,1424.13c154.12-20.2,179.76,211.49,28.62,227.05-149.92,15.43-175.88-207.75-28.62-227.05ZM2528.18,1435.27c-124.37,21.1-102.83,229.6,46.91,204.2,124.37-21.1,102.83-229.6-46.91-204.2Z" style="fill: #13171a;"/>
      <path d="M2555.38,1835.11l243.71-20.87,33.51,228.67c-90.84,19.12-183.98,29.65-277.22,28.14v-235.94Z" style="fill: #fefefe;"/>
      <path d="M2555.38,2082.29c92.81-1.32,186.73-7.99,277.12-29.99l25.91,190.7c-97.41,37.53-198.38,56.97-303.03,60.24v-220.96Z" style="fill: #fefefe;"/>
      <path d="M2544.15,2082.29v220.96c-104.92-3.03-205.47-23.22-303.4-59.97l56.65-183.01c81.72,11.55,163.89,22,246.75,22.01Z" style="fill: #fefefe;"/>
      <path d="M2544.15,1835.11v235.94c-81.2-.52-165.26-4.71-243.57-24.65l67.91-222.13,175.66,10.83Z" style="fill: #fefefe;"/>
      <path d="M2360.61,1820.15l-67.75,224.31c-11.03,9.46-189.15-47.65-209.33-68.9l108.54-187.51,168.55,32.1Z" style="fill: #fefefe;"/>
      <path d="M2840.06,2041.08l-29.9-232.07,125.51-32.99,106.35,184.18c-59.52,42.33-131.4,64.17-201.97,80.89Z" style="fill: #fefefe;"/>
      <path d="M2289.45,2056.11l-56.23,179.73c-42.96-16.81-85.34-42.72-121.52-71.31-16.63-13.14-78.96-69.79-80.71-88.08-1.42-14.86,39.79-70.63,47.35-88.1,67.94,29.17,137.65,55.66,211.1,67.76Z" style="fill: #fefefe;"/>
      <path d="M2866.27,2232.11l-22.43-183.45c73.07-12.13,141.08-43,206.03-77.13,3.48,2.15,39.69,67.34,39.7,71.43.02,6.15-23.66,40.58-29.19,48.06-25.38,34.31-57.32,63.18-91.82,87.95-12.64,9.08-93.47,62.06-102.29,53.14Z" style="fill: #fefefe;"/>
      <path d="M2079.41,1969.67c-10.34,7.28-60.75-38.25-69.03-48.38-36.86-45.08-32.21-71.93-9.97-122.41,5.2-11.82,34.02-66.17,44.27-68.03l136.03,53.95-101.3,184.87Z" style="fill: #fefefe;"/>
      <path d="M3049.86,1954.95l-101.32-181.5c17-2.67,97.6-44.19,106.31-42.61,19.21,3.49,62.69,106.69,62.63,128.62-.09,34.2-38.79,79.56-67.62,95.48Z" style="fill: #fefefe;"/>
      <path d="M2067.99,1977.97c1.93,3.3.06,7.51-1.14,10.82-4.49,12.41-28.14,52.13-36.44,64.8-2.04,3.11-6.62,11.07-10.65,8.17-32.73-51.58-48.18-113.15-44.88-174.21,14.53,14.87,22.53,35.85,37.27,50.71,9.17,9.25,54.11,36.76,55.84,39.72Z" style="fill: #fefefe;"/>
      <path d="M3098.42,2029.85c-5.25,3.9-37.12-58.64-40.77-64.99,23.17-22.52,49.4-42.34,61.4-73.55,14.07,6.18-.05,75.36-3.69,89.9-4.16,16.61-12.13,32.28-16.93,48.64Z" style="fill: #fefefe;"/>
      <path d="M2105.02,911.02c280.15-35.61,343.2,340.05,109.38,416.47-182.81,59.75-346.13-121.76-266.47-296.41,26.61-58.34,92.57-111.86,157.09-120.06Z" style="fill: #fefefe;"/>
      <path d="M2963.65,1333.25c8.93-19.28,19.32-37.7,26.26-57.97,34.84-101.78,25.07-243.5-46.83-327.81l-46.85-41.11c253.96-.29,309.78,351.1,67.42,426.89Z" style="fill: #fefefe;"/>
      <path d="M2528.18,1435.27c149.74-25.4,171.28,183.1,46.91,204.2-149.74,25.4-171.28-183.1-46.91-204.2Z" style="fill: #fefefe;"/>
    </g>
  </g>
</svg>